<?xml version="1.0" encoding="utf-8"?>
<!-- Generator: Adobe Illustrator 16.2.0, SVG Export Plug-In . SVG Version: 6.00 Build 0)  -->
<!DOCTYPE svg PUBLIC "-//W3C//DTD SVG 1.1//EN" "http://www.w3.org/Graphics/SVG/1.1/DTD/svg11.dtd">
<svg version="1.1" id="Layer_1" xmlns="http://www.w3.org/2000/svg" xmlns:xlink="http://www.w3.org/1999/xlink" x="0px" y="0px"
	 width="34px" height="30px" viewBox="0 0 34 30" enable-background="new 0 0 34 30" xml:space="preserve">
<path d="M32,0h-2v8c0,0.553-0.447,1-1,1s-1-0.447-1-1V0h-4v8c0,0.553-0.447,1-1,1s-1-0.447-1-1V0h-4v15c0,0.553-0.447,1-1,1
	s-1-0.447-1-1V0h-4v8c0,0.553-0.447,1-1,1s-1-0.447-1-1V0H6v8c0,0.553-0.447,1-1,1S4,8.553,4,8V0H2C0.9,0,0,0.9,0,2v26
	c0,1.1,0.9,2,2,2h30c1.1,0,2-0.9,2-2V2C34,0.9,33.1,0,32,0z"/>
</svg>
